<svg xmlns="http://www.w3.org/2000/svg" viewBox="0 0 100 100"><g color="#000" fill-rule="evenodd"><path style="text-indent:0;text-transform:none;block-progression:tb;marker:none" d="M11.6 10c-.9.1-1.6 1-1.6 1.8v76.4c0 1 .9 1.8 1.8 1.8h76.3c1 0 1.9-.9 1.9-1.8V11.8c0-1-.9-1.8-1.8-1.8H11.6zm2 3.6h12.7v72.8H13.6zm16.3 0h3.7v24.8c0 .7.5 1.4 1 1.7.7.3 1.5.2 2-.3l7.2-6.3 7.2 6.3c.5.5 1.3.6 2 .3.6-.3 1-1 1-1.7V13.6h32.4v72.8H29.9zm7.4 0h13.1v20.8L45 29.7c-.6-.6-1.7-.6-2.4 0l-5.3 4.7z" overflow="visible"/><path style="text-indent:0;text-transform:none;block-progression:tb;marker:none" d="M59.7 37.4a1.8 1.8 0 100 3.7h18a1.8 1.8 0 100-3.7h-18zM59.7 28.7a1.8 1.8 0 100 3.6h18a1.8 1.8 0 100-3.6h-18zM37.8 46.3a1.8 1.8 0 100 3.6h39.9a1.8 1.8 0 100-3.6H37.8zM37.8 55.3a1.8 1.8 0 100 3.6h39.9a1.8 1.8 0 100-3.6H37.8zM37.8 65a1.8 1.8 0 100 3.6h39.9a1.8 1.8 0 100-3.7H37.8z" overflow="visible"/></g></svg>
