<svg xmlns="http://www.w3.org/2000/svg" width="100" height="100"><g fill="none" fill-rule="evenodd"><path d="M40.12 12.23c10.1-2.59 21.25-1.08 30.15 4.42a39.18 39.18 0 0118.71 32.47 39.16 39.16 0 01-17.5 33.46c-12.29 8.27-29.29 8.59-41.84.72-12.8-7.64-20.26-23.05-18.34-37.85C12.84 29.8 24.9 16.02 40.12 12.23z" fill="#000"/><path d="M38.28 17.82c19.56-7.84 43.55 6.63 45.57 27.62 3.15 18.9-12.5 38.09-31.62 38.64C34.04 85.9 16.47 70.47 15.96 52.2c-1.36-14.8 8.38-29.48 22.32-34.37z" fill="#fff"/><path d="M40.25 47.97c8.77-7.17 17.34-14.59 26.3-21.55-4.7 7.23-9.53 14.36-14.23 21.59-4.03.02-8.06.02-12.07-.04zM47.66 51.96c4.05 0 8.08 0 12.1.06-8.81 7.13-17.35 14.6-26.33 21.55 4.7-7.23 9.53-14.38 14.23-21.6z" fill="#000"/></g></svg>
